{
	"patcher" : 	{
		"fileversion" : 1,
		"appversion" : 		{
			"major" : 9,
			"minor" : 0,
			"revision" : 4,
			"architecture" : "x64",
			"modernui" : 1
		}
,
		"classnamespace" : "box",
		"rect" : [ 1713.0, 170.0, 1149.0, 835.0 ],
		"gridsize" : [ 15.0, 15.0 ],
		"boxes" : [ 			{
				"box" : 				{
					"id" : "obj-6",
					"maxclass" : "newobj",
					"numinlets" : 1,
					"numoutlets" : 1,
					"outlettype" : [ "" ],
					"patching_rect" : [ 121.0, 247.0, 73.0, 22.0 ],
					"text" : "loadmess 3."
				}

			}
, 			{
				"box" : 				{
					"format" : 6,
					"id" : "obj-5",
					"maxclass" : "flonum",
					"numinlets" : 1,
					"numoutlets" : 2,
					"outlettype" : [ "", "bang" ],
					"parameter_enable" : 0,
					"patching_rect" : [ 121.0, 280.0, 50.0, 22.0 ]
				}

			}
, 			{
				"box" : 				{
					"id" : "obj-49",
					"maxclass" : "message",
					"numinlets" : 2,
					"numoutlets" : 1,
					"outlettype" : [ "" ],
					"patching_rect" : [ 28.0, 19.0, 108.0, 22.0 ],
					"text" : "audio/dreams.mp3"
				}

			}
, 			{
				"box" : 				{
					"id" : "obj-46",
					"maxclass" : "newobj",
					"numinlets" : 1,
					"numoutlets" : 0,
					"patching_rect" : [ 1012.0, 671.0, 75.0, 22.0 ],
					"text" : "s wfs.coords"
				}

			}
, 			{
				"box" : 				{
					"id" : "obj-43",
					"maxclass" : "newobj",
					"numinlets" : 2,
					"numoutlets" : 2,
					"outlettype" : [ "", "" ],
					"patching_rect" : [ 1012.0, 638.0, 75.0, 22.0 ],
					"text" : "route mouse"
				}

			}
, 			{
				"box" : 				{
					"id" : "obj-38",
					"maxclass" : "newobj",
					"numinlets" : 1,
					"numoutlets" : 0,
					"patching_rect" : [ 84.0, 194.0, 112.0, 22.0 ],
					"text" : "s wfs.stretchLength"
				}

			}
, 			{
				"box" : 				{
					"id" : "obj-45",
					"maxclass" : "newobj",
					"numinlets" : 1,
					"numoutlets" : 10,
					"outlettype" : [ "float", "list", "float", "float", "float", "float", "float", "", "int", "" ],
					"patching_rect" : [ 28.0, 159.0, 103.0, 22.0 ],
					"text" : "info~ stretch"
				}

			}
, 			{
				"box" : 				{
					"id" : "obj-44",
					"maxclass" : "newobj",
					"numinlets" : 1,
					"numoutlets" : 1,
					"outlettype" : [ "" ],
					"patching_rect" : [ 28.0, 88.0, 95.0, 22.0 ],
					"text" : "prepend replace"
				}

			}
, 			{
				"box" : 				{
					"id" : "obj-39",
					"maxclass" : "newobj",
					"numinlets" : 1,
					"numoutlets" : 1,
					"outlettype" : [ "" ],
					"patching_rect" : [ 28.0, 53.0, 103.0, 22.0 ],
					"text" : "relativetoabsolute"
				}

			}
, 			{
				"box" : 				{
					"id" : "obj-40",
					"maxclass" : "newobj",
					"numinlets" : 1,
					"numoutlets" : 2,
					"outlettype" : [ "float", "bang" ],
					"patching_rect" : [ 28.0, 123.0, 85.0, 22.0 ],
					"text" : "buffer~ stretch"
				}

			}
, 			{
				"box" : 				{
					"id" : "obj-37",
					"maxclass" : "newobj",
					"numinlets" : 1,
					"numoutlets" : 0,
					"patching_rect" : [ 233.0, 312.0, 81.0, 22.0 ],
					"text" : "s wfs.sources"
				}

			}
, 			{
				"box" : 				{
					"id" : "obj-20",
					"lastchannelcount" : 51,
					"maxclass" : "mc.live.gain~",
					"numinlets" : 1,
					"numoutlets" : 4,
					"outlettype" : [ "multichannelsignal", "", "float", "list" ],
					"parameter_enable" : 1,
					"patching_rect" : [ 28.0, 351.0, 329.0, 60.0 ],
					"saved_attribute_attributes" : 					{
						"valueof" : 						{
							"parameter_longname" : "mc.live.gain~[2]",
							"parameter_mmax" : 6.0,
							"parameter_mmin" : -70.0,
							"parameter_modmode" : 3,
							"parameter_osc_name" : "<default>",
							"parameter_shortname" : "granular",
							"parameter_type" : 0,
							"parameter_unitstyle" : 4
						}

					}
,
					"varname" : "mc.live.gain~[1]"
				}

			}
, 			{
				"box" : 				{
					"id" : "obj-18",
					"maxclass" : "toggle",
					"numinlets" : 1,
					"numoutlets" : 1,
					"outlettype" : [ "int" ],
					"parameter_enable" : 0,
					"patching_rect" : [ 28.0, 272.0, 24.0, 24.0 ],
					"svg" : ""
				}

			}
, 			{
				"box" : 				{
					"id" : "obj-14",
					"maxclass" : "newobj",
					"numinlets" : 2,
					"numoutlets" : 3,
					"outlettype" : [ "int", "float", "multichannelsignal" ],
					"patching_rect" : [ 28.0, 312.0, 112.0, 22.0 ],
					"text" : "wfs.granularStretch"
				}

			}
, 			{
				"box" : 				{
					"id" : "obj-27",
					"maxclass" : "number",
					"numinlets" : 1,
					"numoutlets" : 2,
					"outlettype" : [ "", "bang" ],
					"parameter_enable" : 0,
					"patching_rect" : [ 233.0, 247.0, 50.0, 22.0 ]
				}

			}
, 			{
				"box" : 				{
					"id" : "obj-3",
					"maxclass" : "newobj",
					"numinlets" : 1,
					"numoutlets" : 1,
					"outlettype" : [ "" ],
					"patcher" : 					{
						"fileversion" : 1,
						"appversion" : 						{
							"major" : 9,
							"minor" : 0,
							"revision" : 4,
							"architecture" : "x64",
							"modernui" : 1
						}
,
						"classnamespace" : "box",
						"rect" : [ 2568.0, 198.0, 604.0, 810.0 ],
						"gridsize" : [ 15.0, 15.0 ],
						"visible" : 1,
						"boxes" : [ 							{
								"box" : 								{
									"id" : "obj-54",
									"maxclass" : "newobj",
									"numinlets" : 6,
									"numoutlets" : 1,
									"outlettype" : [ "" ],
									"patching_rect" : [ 277.66666666666697, 634.007202081356809, 103.0, 22.0 ],
									"text" : "scale 0. 10. 10. 0."
								}

							}
, 							{
								"box" : 								{
									"id" : "obj-53",
									"maxclass" : "newobj",
									"numinlets" : 1,
									"numoutlets" : 1,
									"outlettype" : [ "" ],
									"patching_rect" : [ 155.666666666666742, 37.0, 87.0, 22.0 ],
									"text" : "loadmess 0.05"
								}

							}
, 							{
								"box" : 								{
									"id" : "obj-52",
									"maxclass" : "newobj",
									"numinlets" : 1,
									"numoutlets" : 3,
									"outlettype" : [ "int", "float", "float" ],
									"patching_rect" : [ 29.0, 563.0, 267.66666666666697, 22.0 ],
									"text" : "unpack i f f"
								}

							}
, 							{
								"box" : 								{
									"id" : "obj-51",
									"maxclass" : "newobj",
									"numinlets" : 1,
									"numoutlets" : 3,
									"outlettype" : [ "int", "float", "float" ],
									"patching_rect" : [ 426.0, 563.0, 67.0, 22.0 ],
									"text" : "unpack i f f"
								}

							}
, 							{
								"box" : 								{
									"id" : "obj-50",
									"maxclass" : "newobj",
									"numinlets" : 3,
									"numoutlets" : 1,
									"outlettype" : [ "" ],
									"patching_rect" : [ 28.666666666666742, 484.0, 252.0, 22.0 ],
									"text" : "pack i f f"
								}

							}
, 							{
								"box" : 								{
									"format" : 6,
									"id" : "obj-43",
									"maxclass" : "flonum",
									"numinlets" : 1,
									"numoutlets" : 2,
									"outlettype" : [ "", "bang" ],
									"parameter_enable" : 0,
									"patching_rect" : [ 261.666666666666742, 443.0, 50.0, 22.0 ]
								}

							}
, 							{
								"box" : 								{
									"format" : 6,
									"id" : "obj-41",
									"maxclass" : "flonum",
									"numinlets" : 1,
									"numoutlets" : 2,
									"outlettype" : [ "", "bang" ],
									"parameter_enable" : 0,
									"patching_rect" : [ 145.666666666666742, 443.0, 50.0, 22.0 ]
								}

							}
, 							{
								"box" : 								{
									"id" : "obj-38",
									"maxclass" : "newobj",
									"numinlets" : 2,
									"numoutlets" : 1,
									"outlettype" : [ "float" ],
									"patching_rect" : [ 261.666666666666742, 405.0, 29.5, 22.0 ],
									"text" : "* 0."
								}

							}
, 							{
								"box" : 								{
									"id" : "obj-37",
									"maxclass" : "newobj",
									"numinlets" : 2,
									"numoutlets" : 1,
									"outlettype" : [ "float" ],
									"patching_rect" : [ 145.666666666666742, 405.0, 29.5, 22.0 ],
									"text" : "* 0."
								}

							}
, 							{
								"box" : 								{
									"id" : "obj-36",
									"maxclass" : "newobj",
									"numinlets" : 6,
									"numoutlets" : 1,
									"outlettype" : [ "" ],
									"patching_rect" : [ 48.0, 292.0, 103.0, 22.0 ],
									"text" : "scale 0 1000 0. 1."
								}

							}
, 							{
								"box" : 								{
									"id" : "obj-34",
									"maxclass" : "newobj",
									"numinlets" : 2,
									"numoutlets" : 1,
									"outlettype" : [ "" ],
									"patching_rect" : [ 48.0, 253.0, 79.0, 22.0 ],
									"text" : "random 1000"
								}

							}
, 							{
								"box" : 								{
									"id" : "obj-23",
									"maxclass" : "newobj",
									"numinlets" : 6,
									"numoutlets" : 1,
									"outlettype" : [ "" ],
									"patching_rect" : [ 271.666666666666742, 292.0, 101.0, 22.0 ],
									"text" : "scale -1. 1. 0. 10."
								}

							}
, 							{
								"box" : 								{
									"id" : "obj-20",
									"maxclass" : "newobj",
									"numinlets" : 6,
									"numoutlets" : 1,
									"outlettype" : [ "" ],
									"patching_rect" : [ 155.666666666666742, 292.0, 98.0, 22.0 ],
									"text" : "scale -1. 1. -2. 2."
								}

							}
, 							{
								"box" : 								{
									"id" : "obj-19",
									"maxclass" : "newobj",
									"numinlets" : 6,
									"numoutlets" : 1,
									"outlettype" : [ "signal" ],
									"patching_rect" : [ 155.666666666666742, 117.0, 108.0, 22.0 ],
									"text" : "scale~ -1. 1. 0.5 0."
								}

							}
, 							{
								"box" : 								{
									"format" : 6,
									"id" : "obj-18",
									"maxclass" : "flonum",
									"numinlets" : 1,
									"numoutlets" : 2,
									"outlettype" : [ "", "bang" ],
									"parameter_enable" : 0,
									"patching_rect" : [ 271.666666666666742, 253.0, 50.0, 22.0 ]
								}

							}
, 							{
								"box" : 								{
									"format" : 6,
									"id" : "obj-16",
									"maxclass" : "flonum",
									"numinlets" : 1,
									"numoutlets" : 2,
									"outlettype" : [ "", "bang" ],
									"parameter_enable" : 0,
									"patching_rect" : [ 155.666666666666742, 253.0, 50.0, 22.0 ]
								}

							}
, 							{
								"box" : 								{
									"id" : "obj-12",
									"maxclass" : "newobj",
									"numinlets" : 2,
									"numoutlets" : 1,
									"outlettype" : [ "signal" ],
									"patching_rect" : [ 155.666666666666742, 80.0, 43.0, 22.0 ],
									"text" : "cycle~"
								}

							}
, 							{
								"box" : 								{
									"id" : "obj-11",
									"maxclass" : "newobj",
									"numinlets" : 2,
									"numoutlets" : 1,
									"outlettype" : [ "float" ],
									"patching_rect" : [ 155.666666666666742, 180.0, 29.5, 22.0 ],
									"text" : "* 0."
								}

							}
, 							{
								"box" : 								{
									"id" : "obj-10",
									"maxclass" : "newobj",
									"numinlets" : 1,
									"numoutlets" : 1,
									"outlettype" : [ "" ],
									"patching_rect" : [ 281.666666666666742, 148.0, 113.0, 22.0 ],
									"text" : "loadmess 6.283185"
								}

							}
, 							{
								"box" : 								{
									"id" : "obj-9",
									"maxclass" : "newobj",
									"numinlets" : 2,
									"numoutlets" : 1,
									"outlettype" : [ "float" ],
									"patching_rect" : [ 271.666666666666742, 180.0, 29.5, 22.0 ],
									"text" : "* 0."
								}

							}
, 							{
								"box" : 								{
									"id" : "obj-8",
									"maxclass" : "meter~",
									"numinlets" : 1,
									"numoutlets" : 1,
									"outlettype" : [ "float" ],
									"patching_rect" : [ 155.666666666666742, 153.0, 80.0, 13.0 ]
								}

							}
, 							{
								"box" : 								{
									"id" : "obj-4",
									"maxclass" : "newobj",
									"numinlets" : 1,
									"numoutlets" : 1,
									"outlettype" : [ "float" ],
									"patching_rect" : [ 155.666666666666742, 216.0, 27.0, 22.0 ],
									"text" : "cos"
								}

							}
, 							{
								"box" : 								{
									"id" : "obj-1",
									"maxclass" : "newobj",
									"numinlets" : 1,
									"numoutlets" : 1,
									"outlettype" : [ "float" ],
									"patching_rect" : [ 271.666666666666742, 216.0, 24.0, 22.0 ],
									"text" : "sin"
								}

							}
, 							{
								"box" : 								{
									"id" : "obj-31",
									"maxclass" : "newobj",
									"numinlets" : 3,
									"numoutlets" : 1,
									"outlettype" : [ "" ],
									"patching_rect" : [ 426.0, 651.0, 67.0, 22.0 ],
									"text" : "pack i f f"
								}

							}
, 							{
								"box" : 								{
									"id" : "obj-30",
									"maxclass" : "newobj",
									"numinlets" : 6,
									"numoutlets" : 1,
									"outlettype" : [ "" ],
									"patching_rect" : [ 557.0, 608.0, 97.0, 22.0 ],
									"text" : "scale 0. 10. 0. 1."
								}

							}
, 							{
								"box" : 								{
									"id" : "obj-26",
									"maxclass" : "newobj",
									"numinlets" : 6,
									"numoutlets" : 1,
									"outlettype" : [ "" ],
									"patching_rect" : [ 450.0, 608.0, 94.0, 22.0 ],
									"text" : "scale -2. 2. 0. 1."
								}

							}
, 							{
								"box" : 								{
									"id" : "obj-22",
									"maxclass" : "newobj",
									"numinlets" : 1,
									"numoutlets" : 0,
									"patching_rect" : [ 426.0, 701.0, 72.0, 22.0 ],
									"text" : "s wfs.nodes"
								}

							}
, 							{
								"box" : 								{
									"id" : "obj-21",
									"maxclass" : "newobj",
									"numinlets" : 3,
									"numoutlets" : 1,
									"outlettype" : [ "" ],
									"patching_rect" : [ 29.0, 701.0, 267.66666666666697, 22.0 ],
									"text" : "pack s f f"
								}

							}
, 							{
								"box" : 								{
									"id" : "obj-40",
									"maxclass" : "newobj",
									"numinlets" : 3,
									"numoutlets" : 2,
									"outlettype" : [ "", "" ],
									"patching_rect" : [ 28.666666666666742, 634.007202081356809, 216.0, 22.0 ],
									"text" : "combine /source/ index /xy @triggers 1"
								}

							}
, 							{
								"box" : 								{
									"id" : "obj-106",
									"maxclass" : "newobj",
									"numinlets" : 1,
									"numoutlets" : 2,
									"outlettype" : [ "int", "bang" ],
									"patching_rect" : [ 28.666666666666742, 216.0, 29.5, 22.0 ],
									"text" : "t i b"
								}

							}
, 							{
								"box" : 								{
									"comment" : "",
									"id" : "obj-3",
									"index" : 1,
									"maxclass" : "outlet",
									"numinlets" : 1,
									"numoutlets" : 0,
									"patching_rect" : [ 29.0, 736.0, 30.0, 30.0 ]
								}

							}
, 							{
								"box" : 								{
									"comment" : "",
									"id" : "obj-2",
									"index" : 1,
									"maxclass" : "inlet",
									"numinlets" : 0,
									"numoutlets" : 1,
									"outlettype" : [ "" ],
									"patching_rect" : [ 29.0, 172.0, 30.0, 30.0 ]
								}

							}
 ],
						"lines" : [ 							{
								"patchline" : 								{
									"destination" : [ "obj-18", 0 ],
									"source" : [ "obj-1", 0 ]
								}

							}
, 							{
								"patchline" : 								{
									"destination" : [ "obj-11", 1 ],
									"order" : 1,
									"source" : [ "obj-10", 0 ]
								}

							}
, 							{
								"patchline" : 								{
									"destination" : [ "obj-9", 1 ],
									"order" : 0,
									"source" : [ "obj-10", 0 ]
								}

							}
, 							{
								"patchline" : 								{
									"destination" : [ "obj-34", 0 ],
									"source" : [ "obj-106", 1 ]
								}

							}
, 							{
								"patchline" : 								{
									"destination" : [ "obj-50", 0 ],
									"source" : [ "obj-106", 0 ]
								}

							}
, 							{
								"patchline" : 								{
									"destination" : [ "obj-4", 0 ],
									"source" : [ "obj-11", 0 ]
								}

							}
, 							{
								"patchline" : 								{
									"destination" : [ "obj-19", 0 ],
									"source" : [ "obj-12", 0 ]
								}

							}
, 							{
								"patchline" : 								{
									"destination" : [ "obj-20", 0 ],
									"source" : [ "obj-16", 0 ]
								}

							}
, 							{
								"patchline" : 								{
									"destination" : [ "obj-23", 0 ],
									"source" : [ "obj-18", 0 ]
								}

							}
, 							{
								"patchline" : 								{
									"destination" : [ "obj-8", 0 ],
									"source" : [ "obj-19", 0 ]
								}

							}
, 							{
								"patchline" : 								{
									"destination" : [ "obj-106", 0 ],
									"source" : [ "obj-2", 0 ]
								}

							}
, 							{
								"patchline" : 								{
									"destination" : [ "obj-37", 1 ],
									"source" : [ "obj-20", 0 ]
								}

							}
, 							{
								"patchline" : 								{
									"destination" : [ "obj-3", 0 ],
									"source" : [ "obj-21", 0 ]
								}

							}
, 							{
								"patchline" : 								{
									"destination" : [ "obj-38", 1 ],
									"source" : [ "obj-23", 0 ]
								}

							}
, 							{
								"patchline" : 								{
									"destination" : [ "obj-31", 1 ],
									"source" : [ "obj-26", 0 ]
								}

							}
, 							{
								"patchline" : 								{
									"destination" : [ "obj-31", 2 ],
									"source" : [ "obj-30", 0 ]
								}

							}
, 							{
								"patchline" : 								{
									"destination" : [ "obj-22", 0 ],
									"source" : [ "obj-31", 0 ]
								}

							}
, 							{
								"patchline" : 								{
									"destination" : [ "obj-36", 0 ],
									"source" : [ "obj-34", 0 ]
								}

							}
, 							{
								"patchline" : 								{
									"destination" : [ "obj-37", 0 ],
									"order" : 1,
									"source" : [ "obj-36", 0 ]
								}

							}
, 							{
								"patchline" : 								{
									"destination" : [ "obj-38", 0 ],
									"order" : 0,
									"source" : [ "obj-36", 0 ]
								}

							}
, 							{
								"patchline" : 								{
									"destination" : [ "obj-41", 0 ],
									"source" : [ "obj-37", 0 ]
								}

							}
, 							{
								"patchline" : 								{
									"destination" : [ "obj-43", 0 ],
									"source" : [ "obj-38", 0 ]
								}

							}
, 							{
								"patchline" : 								{
									"destination" : [ "obj-16", 0 ],
									"source" : [ "obj-4", 0 ]
								}

							}
, 							{
								"patchline" : 								{
									"destination" : [ "obj-21", 0 ],
									"source" : [ "obj-40", 0 ]
								}

							}
, 							{
								"patchline" : 								{
									"destination" : [ "obj-50", 1 ],
									"source" : [ "obj-41", 0 ]
								}

							}
, 							{
								"patchline" : 								{
									"destination" : [ "obj-50", 2 ],
									"source" : [ "obj-43", 0 ]
								}

							}
, 							{
								"patchline" : 								{
									"destination" : [ "obj-51", 0 ],
									"order" : 0,
									"source" : [ "obj-50", 0 ]
								}

							}
, 							{
								"patchline" : 								{
									"destination" : [ "obj-52", 0 ],
									"order" : 1,
									"source" : [ "obj-50", 0 ]
								}

							}
, 							{
								"patchline" : 								{
									"destination" : [ "obj-26", 0 ],
									"source" : [ "obj-51", 1 ]
								}

							}
, 							{
								"patchline" : 								{
									"destination" : [ "obj-30", 0 ],
									"source" : [ "obj-51", 2 ]
								}

							}
, 							{
								"patchline" : 								{
									"destination" : [ "obj-31", 0 ],
									"source" : [ "obj-51", 0 ]
								}

							}
, 							{
								"patchline" : 								{
									"destination" : [ "obj-21", 1 ],
									"source" : [ "obj-52", 1 ]
								}

							}
, 							{
								"patchline" : 								{
									"destination" : [ "obj-40", 1 ],
									"source" : [ "obj-52", 0 ]
								}

							}
, 							{
								"patchline" : 								{
									"destination" : [ "obj-54", 0 ],
									"source" : [ "obj-52", 2 ]
								}

							}
, 							{
								"patchline" : 								{
									"destination" : [ "obj-12", 0 ],
									"source" : [ "obj-53", 0 ]
								}

							}
, 							{
								"patchline" : 								{
									"destination" : [ "obj-21", 2 ],
									"source" : [ "obj-54", 0 ]
								}

							}
, 							{
								"patchline" : 								{
									"destination" : [ "obj-11", 0 ],
									"order" : 1,
									"source" : [ "obj-8", 0 ]
								}

							}
, 							{
								"patchline" : 								{
									"destination" : [ "obj-9", 0 ],
									"order" : 0,
									"source" : [ "obj-8", 0 ]
								}

							}
, 							{
								"patchline" : 								{
									"destination" : [ "obj-1", 0 ],
									"source" : [ "obj-9", 0 ]
								}

							}
 ],
						"originid" : "pat-459"
					}
,
					"patching_rect" : [ 233.0, 280.0, 73.0, 22.0 ],
					"saved_object_attributes" : 					{
						"globalpatchername" : ""
					}
,
					"text" : "p lighthouse"
				}

			}
, 			{
				"box" : 				{
					"id" : "obj-33",
					"maxclass" : "comment",
					"numinlets" : 1,
					"numoutlets" : 0,
					"patching_rect" : [ 253.0, 652.0, 75.0, 20.0 ],
					"text" : "stereo mode"
				}

			}
, 			{
				"box" : 				{
					"id" : "obj-29",
					"maxclass" : "newobj",
					"numinlets" : 2,
					"numoutlets" : 1,
					"outlettype" : [ "int" ],
					"patching_rect" : [ 221.0, 690.0, 29.5, 22.0 ],
					"text" : "!- 1"
				}

			}
, 			{
				"box" : 				{
					"id" : "obj-28",
					"maxclass" : "toggle",
					"numinlets" : 1,
					"numoutlets" : 1,
					"outlettype" : [ "int" ],
					"parameter_enable" : 0,
					"patching_rect" : [ 221.0, 650.0, 24.0, 24.0 ],
					"svg" : ""
				}

			}
, 			{
				"box" : 				{
					"id" : "obj-25",
					"maxclass" : "newobj",
					"numinlets" : 2,
					"numoutlets" : 1,
					"outlettype" : [ "multichannelsignal" ],
					"patching_rect" : [ 106.0, 651.0, 53.0, 22.0 ],
					"text" : "mc.*~ 0."
				}

			}
, 			{
				"box" : 				{
					"id" : "obj-24",
					"maxclass" : "newobj",
					"numinlets" : 2,
					"numoutlets" : 1,
					"outlettype" : [ "multichannelsignal" ],
					"patching_rect" : [ 28.0, 651.0, 53.0, 22.0 ],
					"text" : "mc.*~ 1."
				}

			}
, 			{
				"box" : 				{
					"id" : "obj-22",
					"maxclass" : "newobj",
					"numinlets" : 2,
					"numoutlets" : 1,
					"outlettype" : [ "multichannelsignal" ],
					"patching_rect" : [ 106.0, 690.0, 68.0, 22.0 ],
					"text" : "mc.stereo~"
				}

			}
, 			{
				"box" : 				{
					"id" : "obj-19",
					"maxclass" : "newobj",
					"numinlets" : 0,
					"numoutlets" : 1,
					"outlettype" : [ "" ],
					"patching_rect" : [ 198.0, 432.0, 79.0, 22.0 ],
					"text" : "r wfs.sources"
				}

			}
, 			{
				"box" : 				{
					"id" : "obj-10",
					"maxclass" : "newobj",
					"numinlets" : 1,
					"numoutlets" : 1,
					"outlettype" : [ "" ],
					"patching_rect" : [ 505.0, 55.0, 99.0, 22.0 ],
					"text" : "prepend setnode"
				}

			}
, 			{
				"box" : 				{
					"id" : "obj-7",
					"maxclass" : "newobj",
					"numinlets" : 0,
					"numoutlets" : 1,
					"outlettype" : [ "" ],
					"patching_rect" : [ 505.0, 19.0, 70.0, 22.0 ],
					"text" : "r wfs.nodes"
				}

			}
, 			{
				"box" : 				{
					"displayknob" : 1,
					"id" : "obj-2",
					"maxclass" : "nodes",
					"nodecolor" : [ 0.964705882352941, 0.784313725490196, 0.956862745098039, 1.0 ],
					"nodenumber" : 64,
					"nsize" : [ 0.015, 0.015, 0.015, 0.015, 0.015, 0.015, 0.015, 0.015, 0.015, 0.015, 0.015, 0.015, 0.015, 0.015, 0.015, 0.015, 0.015, 0.015, 0.015, 0.015, 0.015, 0.015, 0.015, 0.015, 0.015, 0.015, 0.015, 0.015, 0.015, 0.015, 0.015, 0.015, 0.015, 0.015, 0.015, 0.015, 0.015, 0.015, 0.015, 0.015, 0.015, 0.015, 0.015, 0.015, 0.015, 0.015, 0.015, 0.015, 0.015, 0.015, 0.015, 0.015, 0.015, 0.015, 0.015, 0.015, 0.015, 0.015, 0.015, 0.015, 0.015, 0.015, 0.015, 0.015 ],
					"numinlets" : 1,
					"numoutlets" : 3,
					"outlettype" : [ "", "", "" ],
					"parameter_enable" : 0,
					"patching_rect" : [ 505.0, 97.0, 526.0, 523.0 ],
					"pointcolor" : [ 0.964705882352941, 0.784313725490196, 0.956862745098039, 1.0 ],
					"textcolor" : [ 0.0, 0.0, 0.0, 1.0 ],
					"xplace" : [ 0.599429956325111, 0.563052852869722, 0.520482205923657, 0.55337503265362, 0.58373096444269, 0.536326904166772, 0.504320756126033, 0.535676969334768, 0.515384254500523, 0.525597604518173, 0.518171311949828, 0.502042994595215, 0.50113888292857, 0.503780906888371, 0.49986323306898, 0.49409803229822, 0.497910332848266, 0.475028477536782, 0.456102230219229, 0.458034194547668, 0.453831777311829, 0.476804823826679, 0.466868634719939, 0.413458376930868, 0.367946082326249, 0.426611247440111, 0.435493248809974, 0.359962258444786, 0.49678748746882, 0.442953811835011, 0.494746687569462, 0.331550979438537, 0.260175543237886, 0.440810539037867, 0.421069865957666, 0.337292400282892, 0.480520073161897, 0.211453583710598, 0.253086227734079, 0.46997436838617, 0.362614728872327, 0.824519432190524, 0.528246687492473, 0.711313826684195, 0.711493788482144, 0.83540653721946, 0.66079311647871, 0.516648068152204, 0.523011333253449, 0.763652517598885, 0.538486878446074, 0.504510528033196, 0.604621279186656, 0.637991987341639, 0.647655567268049, 0.504516259961696, 0.514417068145094, 0.505034531733207, 0.564379590347543, 0.634528595573741, 0.676709034039636, 0.620450647692324, 0.637086942174247, 0.546435427486171 ],
					"yplace" : [ 0.610814536787535, 0.42156937604843, 0.150207050141088, 0.42428543026089, 0.74357134945879, 0.36538838004045, 0.048615991924434, 0.47129928266874, 0.246038054144266, 0.547803883329402, 0.541390094903682, 0.114963694391189, 0.246994748656269, 0.819982566389233, 0.015998830839978, 0.271871876329309, 0.059927133026653, 0.716129239668499, 0.913891418879841, 0.716542184024153, 0.788296060588463, 0.323336046340019, 0.390186764221717, 0.563714093891574, 0.79198150972094, 0.407792526461859, 0.329366281294056, 0.669718177091987, 0.014277150082226, 0.239406963540097, 0.02066450767019, 0.623489926246372, 0.846015719398018, 0.199433259652408, 0.254522971358156, 0.498939985185021, 0.057387643655569, 0.850054471648115, 0.699891643269547, 0.082006498647298, 0.359496864063003, 0.751946299423182, 0.067111132640705, 0.50205923279312, 0.522372107727773, 0.856682305593271, 0.425193780610272, 0.045971024680762, 0.065973756088894, 0.79226034401245, 0.118500096108187, 0.014607203407021, 0.35408786446187, 0.489064904926345, 0.554695233667118, 0.017857834406016, 0.059507108849357, 0.020780260233109, 0.284427826435775, 0.631333796599314, 0.947027260990828, 0.645524704430483, 0.778871726928919, 0.263827035771689 ]
				}

			}
, 			{
				"box" : 				{
					"id" : "obj-71",
					"maxclass" : "newobj",
					"numinlets" : 0,
					"numoutlets" : 1,
					"outlettype" : [ "" ],
					"patcher" : 					{
						"fileversion" : 1,
						"appversion" : 						{
							"major" : 9,
							"minor" : 0,
							"revision" : 4,
							"architecture" : "x64",
							"modernui" : 1
						}
,
						"classnamespace" : "box",
						"rect" : [ 1800.0, 167.0, 1000.0, 755.0 ],
						"gridsize" : [ 15.0, 15.0 ],
						"boxes" : [ 							{
								"box" : 								{
									"id" : "obj-1",
									"maxclass" : "newobj",
									"numinlets" : 1,
									"numoutlets" : 1,
									"outlettype" : [ "bang" ],
									"patching_rect" : [ 50.0, 70.0, 58.0, 22.0 ],
									"text" : "loadbang"
								}

							}
, 							{
								"box" : 								{
									"id" : "obj-81",
									"maxclass" : "live.text",
									"numinlets" : 1,
									"numoutlets" : 2,
									"outlettype" : [ "", "" ],
									"parameter_enable" : 1,
									"patching_rect" : [ 750.0, 183.0, 44.0, 15.0 ],
									"saved_attribute_attributes" : 									{
										"valueof" : 										{
											"parameter_enum" : [ "val1", "val2" ],
											"parameter_initial" : [ 1.0 ],
											"parameter_initial_enable" : 1,
											"parameter_longname" : "live.text[16]",
											"parameter_mmax" : 1,
											"parameter_modmode" : 0,
											"parameter_osc_name" : "<default>",
											"parameter_shortname" : "live.text[16]",
											"parameter_type" : 2
										}

									}
,
									"text" : "enable",
									"texton" : "enable",
									"varname" : "live.toggle[1]"
								}

							}
, 							{
								"box" : 								{
									"bubble" : 1,
									"bubbleside" : 2,
									"fontname" : "Arial",
									"fontsize" : 11.0,
									"id" : "obj-80",
									"linecount" : 5,
									"maxclass" : "comment",
									"numinlets" : 1,
									"numoutlets" : 0,
									"patching_rect" : [ 736.0, 100.0, 70.0, 87.0 ],
									"saved_attribute_attributes" : 									{
										"bubble_bgcolor" : 										{
											"expression" : "themecolor.theme_bubble_bgcolor"
										}
,
										"bubble_outlinecolor" : 										{
											"expression" : "themecolor.theme_bubble_outlinecolor"
										}
,
										"textcolor" : 										{
											"expression" : "themecolor.live_control_fg"
										}

									}
,
									"text" : "pre-equalization filter (aka pre-emphasis filter)",
									"textjustification" : 1
								}

							}
, 							{
								"box" : 								{
									"id" : "obj-79",
									"maxclass" : "message",
									"numinlets" : 2,
									"numoutlets" : 1,
									"outlettype" : [ "" ],
									"patching_rect" : [ 750.0, 203.0, 69.0, 22.0 ],
									"text" : "/prefilter $1"
								}

							}
, 							{
								"box" : 								{
									"focusbordercolor" : [ 0.313725, 0.313725, 0.313725, 0.0 ],
									"id" : "obj-71",
									"maxclass" : "live.dial",
									"numinlets" : 1,
									"numoutlets" : 2,
									"outlettype" : [ "", "float" ],
									"parameter_enable" : 1,
									"patching_rect" : [ 656.0, 153.0, 41.0, 48.0 ],
									"saved_attribute_attributes" : 									{
										"focusbordercolor" : 										{
											"expression" : ""
										}
,
										"valueof" : 										{
											"parameter_initial" : [ 100 ],
											"parameter_initial_enable" : 1,
											"parameter_longname" : "live.dial[43]",
											"parameter_mmax" : 200.0,
											"parameter_modmode" : 0,
											"parameter_osc_name" : "<default>",
											"parameter_shortname" : "scaling",
											"parameter_type" : 0,
											"parameter_unitstyle" : 5
										}

									}
,
									"varname" : "live.dial[4]"
								}

							}
, 							{
								"box" : 								{
									"id" : "obj-72",
									"maxclass" : "message",
									"numinlets" : 2,
									"numoutlets" : 1,
									"outlettype" : [ "" ],
									"patching_rect" : [ 656.0, 203.0, 92.0, 22.0 ],
									"text" : "/gain/scaling $1"
								}

							}
, 							{
								"box" : 								{
									"focusbordercolor" : [ 0.313725, 0.313725, 0.313725, 0.0 ],
									"id" : "obj-41",
									"maxclass" : "live.dial",
									"numinlets" : 1,
									"numoutlets" : 2,
									"outlettype" : [ "", "float" ],
									"parameter_enable" : 1,
									"patching_rect" : [ 564.0, 153.0, 41.0, 48.0 ],
									"saved_attribute_attributes" : 									{
										"focusbordercolor" : 										{
											"expression" : ""
										}
,
										"valueof" : 										{
											"parameter_initial" : [ 100 ],
											"parameter_initial_enable" : 1,
											"parameter_longname" : "live.dial[10]",
											"parameter_mmax" : 200.0,
											"parameter_modmode" : 0,
											"parameter_osc_name" : "<default>",
											"parameter_shortname" : "scaling",
											"parameter_type" : 0,
											"parameter_unitstyle" : 5
										}

									}
,
									"varname" : "live.dial"
								}

							}
, 							{
								"box" : 								{
									"id" : "obj-69",
									"maxclass" : "message",
									"numinlets" : 2,
									"numoutlets" : 1,
									"outlettype" : [ "" ],
									"patching_rect" : [ 564.0, 203.0, 98.0, 22.0 ],
									"text" : "/delay/scaling $1"
								}

							}
, 							{
								"box" : 								{
									"id" : "obj-10",
									"maxclass" : "live.tab",
									"num_lines_patching" : 2,
									"num_lines_presentation" : 0,
									"numinlets" : 1,
									"numoutlets" : 3,
									"outlettype" : [ "", "", "float" ],
									"parameter_enable" : 1,
									"patching_rect" : [ 467.0, 162.0, 50.0, 31.0 ],
									"saved_attribute_attributes" : 									{
										"valueof" : 										{
											"parameter_enum" : [ "vdelay", "xdelay" ],
											"parameter_longname" : "live.tab",
											"parameter_mmax" : 1,
											"parameter_modmode" : 0,
											"parameter_osc_name" : "<default>",
											"parameter_shortname" : "live.tab",
											"parameter_type" : 2,
											"parameter_unitstyle" : 9
										}

									}
,
									"varname" : "live.menu[1]"
								}

							}
, 							{
								"box" : 								{
									"fontname" : "Arial",
									"fontsize" : 11.0,
									"id" : "obj-17",
									"maxclass" : "message",
									"numinlets" : 2,
									"numoutlets" : 1,
									"outlettype" : [ "" ],
									"patching_rect" : [ 460.0, 203.0, 86.0, 21.0 ],
									"text" : "/delay/mode $1"
								}

							}
, 							{
								"box" : 								{
									"focusbordercolor" : [ 0.0, 0.019608, 0.078431, 0.0 ],
									"id" : "obj-32",
									"maxclass" : "live.dial",
									"numinlets" : 1,
									"numoutlets" : 2,
									"outlettype" : [ "", "float" ],
									"parameter_enable" : 1,
									"patching_rect" : [ 370.0, 153.0, 44.0, 48.0 ],
									"saved_attribute_attributes" : 									{
										"focusbordercolor" : 										{
											"expression" : ""
										}
,
										"valueof" : 										{
											"parameter_initial" : [ 20 ],
											"parameter_initial_enable" : 1,
											"parameter_longname" : "live.dial[3]",
											"parameter_mmax" : 1000.0,
											"parameter_modmode" : 0,
											"parameter_osc_name" : "<default>",
											"parameter_shortname" : " ",
											"parameter_type" : 0,
											"parameter_unitstyle" : 2
										}

									}
,
									"varname" : "live.dial[1]"
								}

							}
, 							{
								"box" : 								{
									"fontname" : "Arial",
									"fontsize" : 11.0,
									"id" : "obj-23",
									"maxclass" : "message",
									"numinlets" : 2,
									"numoutlets" : 1,
									"outlettype" : [ "" ],
									"patching_rect" : [ 370.0, 203.0, 78.0, 21.0 ],
									"text" : "/ramp/time $1"
								}

							}
, 							{
								"box" : 								{
									"focusbordercolor" : [ 0.0, 0.019608, 0.078431, 0.0 ],
									"id" : "obj-28",
									"maxclass" : "live.dial",
									"numinlets" : 1,
									"numoutlets" : 2,
									"outlettype" : [ "", "float" ],
									"parameter_enable" : 1,
									"patching_rect" : [ 246.0, 153.0, 44.0, 48.0 ],
									"saved_attribute_attributes" : 									{
										"focusbordercolor" : 										{
											"expression" : ""
										}
,
										"valueof" : 										{
											"parameter_initial" : [ 20 ],
											"parameter_initial_enable" : 1,
											"parameter_longname" : "live.dial[2]",
											"parameter_mmax" : 1000.0,
											"parameter_modmode" : 0,
											"parameter_osc_name" : "<default>",
											"parameter_shortname" : " ",
											"parameter_type" : 0,
											"parameter_unitstyle" : 2
										}

									}
,
									"varname" : "live.dial[2]"
								}

							}
, 							{
								"box" : 								{
									"fontname" : "Arial",
									"fontsize" : 11.0,
									"id" : "obj-2",
									"maxclass" : "message",
									"numinlets" : 2,
									"numoutlets" : 1,
									"outlettype" : [ "" ],
									"patching_rect" : [ 246.0, 203.0, 113.0, 21.0 ],
									"text" : "/interpolation/time $1"
								}

							}
, 							{
								"box" : 								{
									"id" : "obj-26",
									"maxclass" : "live.menu",
									"numinlets" : 1,
									"numoutlets" : 3,
									"outlettype" : [ "", "", "float" ],
									"parameter_enable" : 1,
									"patching_rect" : [ 110.0, 173.0, 100.0, 15.0 ],
									"saved_attribute_attributes" : 									{
										"valueof" : 										{
											"parameter_enum" : [ "nearest", "linear", "lagrange3", "allpass", "nearestXfade", "hermite3", "watte3", "bspline3", "parabolic" ],
											"parameter_longname" : "live.menu[1]",
											"parameter_mmax" : 8,
											"parameter_modmode" : 0,
											"parameter_osc_name" : "<default>",
											"parameter_shortname" : "live.menu",
											"parameter_type" : 2
										}

									}
,
									"varname" : "live.menu"
								}

							}
, 							{
								"box" : 								{
									"fontname" : "Arial",
									"fontsize" : 11.0,
									"id" : "obj-25",
									"maxclass" : "message",
									"numinlets" : 2,
									"numoutlets" : 1,
									"outlettype" : [ "" ],
									"patching_rect" : [ 110.0, 203.0, 120.0, 21.0 ],
									"text" : "/interpolation/mode $1"
								}

							}
, 							{
								"box" : 								{
									"fontname" : "Arial",
									"fontsize" : 11.0,
									"id" : "obj-11",
									"maxclass" : "message",
									"numinlets" : 2,
									"numoutlets" : 1,
									"outlettype" : [ "" ],
									"patching_rect" : [ 50.0, 203.0, 51.0, 21.0 ],
									"text" : "/mute $1"
								}

							}
, 							{
								"box" : 								{
									"activebgoncolor" : [ 0.996078431372549, 0.192156862745098, 0.192156862745098, 1.0 ],
									"id" : "obj-14",
									"maxclass" : "live.text",
									"numinlets" : 1,
									"numoutlets" : 2,
									"outlettype" : [ "", "" ],
									"parameter_enable" : 1,
									"patching_rect" : [ 50.0, 182.0, 40.0, 20.0 ],
									"saved_attribute_attributes" : 									{
										"activebgoncolor" : 										{
											"expression" : ""
										}
,
										"valueof" : 										{
											"parameter_enum" : [ "val1", "val2" ],
											"parameter_longname" : "live.toggle[7]",
											"parameter_mmax" : 1,
											"parameter_modmode" : 0,
											"parameter_osc_name" : "<default>",
											"parameter_shortname" : "live.toggle",
											"parameter_type" : 2
										}

									}
,
									"text" : "mute",
									"texton" : "mute",
									"varname" : "live.toggle[3]"
								}

							}
, 							{
								"box" : 								{
									"fontname" : "Arial",
									"fontsize" : 11.0,
									"id" : "obj-7",
									"maxclass" : "newobj",
									"numinlets" : 1,
									"numoutlets" : 2,
									"outlettype" : [ "", "" ],
									"patching_rect" : [ 50.0, 253.0, 147.0, 21.0 ],
									"text" : "spat5.osc.prepend /source/*"
								}

							}
, 							{
								"box" : 								{
									"comment" : "",
									"id" : "obj-70",
									"index" : 1,
									"maxclass" : "outlet",
									"numinlets" : 1,
									"numoutlets" : 0,
									"patching_rect" : [ 50.0, 334.0, 30.0, 30.0 ]
								}

							}
 ],
						"lines" : [ 							{
								"patchline" : 								{
									"destination" : [ "obj-26", 0 ],
									"order" : 4,
									"source" : [ "obj-1", 0 ]
								}

							}
, 							{
								"patchline" : 								{
									"destination" : [ "obj-28", 0 ],
									"order" : 3,
									"source" : [ "obj-1", 0 ]
								}

							}
, 							{
								"patchline" : 								{
									"destination" : [ "obj-32", 0 ],
									"order" : 2,
									"source" : [ "obj-1", 0 ]
								}

							}
, 							{
								"patchline" : 								{
									"destination" : [ "obj-41", 0 ],
									"order" : 1,
									"source" : [ "obj-1", 0 ]
								}

							}
, 							{
								"patchline" : 								{
									"destination" : [ "obj-71", 0 ],
									"order" : 0,
									"source" : [ "obj-1", 0 ]
								}

							}
, 							{
								"patchline" : 								{
									"destination" : [ "obj-17", 0 ],
									"source" : [ "obj-10", 1 ]
								}

							}
, 							{
								"patchline" : 								{
									"destination" : [ "obj-7", 0 ],
									"midpoints" : [ 59.5, 238.0, 59.5, 238.0 ],
									"source" : [ "obj-11", 0 ]
								}

							}
, 							{
								"patchline" : 								{
									"destination" : [ "obj-11", 0 ],
									"source" : [ "obj-14", 0 ]
								}

							}
, 							{
								"patchline" : 								{
									"destination" : [ "obj-7", 0 ],
									"midpoints" : [ 469.5, 238.0, 59.5, 238.0 ],
									"source" : [ "obj-17", 0 ]
								}

							}
, 							{
								"patchline" : 								{
									"destination" : [ "obj-7", 0 ],
									"midpoints" : [ 255.5, 238.0, 59.5, 238.0 ],
									"source" : [ "obj-2", 0 ]
								}

							}
, 							{
								"patchline" : 								{
									"destination" : [ "obj-7", 0 ],
									"midpoints" : [ 379.5, 238.0, 59.5, 238.0 ],
									"source" : [ "obj-23", 0 ]
								}

							}
, 							{
								"patchline" : 								{
									"destination" : [ "obj-7", 0 ],
									"midpoints" : [ 119.5, 238.0, 59.5, 238.0 ],
									"source" : [ "obj-25", 0 ]
								}

							}
, 							{
								"patchline" : 								{
									"destination" : [ "obj-25", 0 ],
									"source" : [ "obj-26", 1 ]
								}

							}
, 							{
								"patchline" : 								{
									"destination" : [ "obj-2", 0 ],
									"source" : [ "obj-28", 0 ]
								}

							}
, 							{
								"patchline" : 								{
									"destination" : [ "obj-23", 0 ],
									"source" : [ "obj-32", 0 ]
								}

							}
, 							{
								"patchline" : 								{
									"destination" : [ "obj-69", 0 ],
									"source" : [ "obj-41", 0 ]
								}

							}
, 							{
								"patchline" : 								{
									"destination" : [ "obj-7", 0 ],
									"midpoints" : [ 573.5, 238.0, 59.5, 238.0 ],
									"source" : [ "obj-69", 0 ]
								}

							}
, 							{
								"patchline" : 								{
									"destination" : [ "obj-70", 0 ],
									"source" : [ "obj-7", 0 ]
								}

							}
, 							{
								"patchline" : 								{
									"destination" : [ "obj-72", 0 ],
									"source" : [ "obj-71", 0 ]
								}

							}
, 							{
								"patchline" : 								{
									"destination" : [ "obj-7", 0 ],
									"midpoints" : [ 665.5, 238.0, 59.5, 238.0 ],
									"source" : [ "obj-72", 0 ]
								}

							}
, 							{
								"patchline" : 								{
									"destination" : [ "obj-7", 0 ],
									"midpoints" : [ 759.5, 238.0, 59.5, 238.0 ],
									"source" : [ "obj-79", 0 ]
								}

							}
, 							{
								"patchline" : 								{
									"destination" : [ "obj-79", 0 ],
									"source" : [ "obj-81", 0 ]
								}

							}
 ],
						"originid" : "pat-461"
					}
,
					"patching_rect" : [ 298.0, 517.0, 89.0, 22.0 ],
					"saved_object_attributes" : 					{
						"globalpatchername" : ""
					}
,
					"text" : "p spat5Options"
				}

			}
, 			{
				"box" : 				{
					"id" : "obj-68",
					"maxclass" : "newobj",
					"numinlets" : 0,
					"numoutlets" : 1,
					"outlettype" : [ "" ],
					"patching_rect" : [ 65.0, 432.0, 121.0, 22.0 ],
					"text" : "wfs.64speakerConfig"
				}

			}
, 			{
				"box" : 				{
					"id" : "obj-65",
					"maxclass" : "newobj",
					"numinlets" : 1,
					"numoutlets" : 0,
					"patching_rect" : [ 28.0, 729.0, 54.0, 22.0 ],
					"text" : "mc.dac~"
				}

			}
, 			{
				"box" : 				{
					"id" : "obj-47",
					"lastchannelcount" : 64,
					"maxclass" : "mc.live.gain~",
					"numinlets" : 1,
					"numoutlets" : 4,
					"outlettype" : [ "multichannelsignal", "", "float", "list" ],
					"parameter_enable" : 1,
					"patching_rect" : [ 28.0, 555.0, 420.0, 52.0 ],
					"saved_attribute_attributes" : 					{
						"valueof" : 						{
							"parameter_longname" : "mc.live.gain~",
							"parameter_mmax" : 6.0,
							"parameter_mmin" : -70.0,
							"parameter_modmode" : 3,
							"parameter_osc_name" : "<default>",
							"parameter_shortname" : "mc.live.gain~",
							"parameter_type" : 0,
							"parameter_unitstyle" : 4
						}

					}
,
					"varname" : "mc.live.gain~"
				}

			}
, 			{
				"box" : 				{
					"id" : "obj-15",
					"maxclass" : "newobj",
					"numinlets" : 1,
					"numoutlets" : 3,
					"outlettype" : [ "", "", "" ],
					"patching_rect" : [ 65.0, 468.0, 353.0, 22.0 ],
					"saved_object_attributes" : 					{
						"parameter_enable" : 0
					}
,
					"text" : "spat5.viewer @initwith \"/source/number 64, /speaker/number 64\"",
					"varname" : "spat5.viewer"
				}

			}
, 			{
				"box" : 				{
					"id" : "obj-1",
					"maxclass" : "newobj",
					"numinlets" : 1,
					"numoutlets" : 2,
					"outlettype" : [ "multichannelsignal", "" ],
					"patching_rect" : [ 28.0, 517.0, 263.0, 22.0 ],
					"saved_object_attributes" : 					{
						"parameter_enable" : 0
					}
,
					"text" : "spat5.wfs~ @sources 64 @speakers 64 @mc 1"
				}

			}
 ],
		"lines" : [ 			{
				"patchline" : 				{
					"destination" : [ "obj-47", 0 ],
					"source" : [ "obj-1", 0 ]
				}

			}
, 			{
				"patchline" : 				{
					"destination" : [ "obj-2", 0 ],
					"source" : [ "obj-10", 0 ]
				}

			}
, 			{
				"patchline" : 				{
					"destination" : [ "obj-20", 0 ],
					"source" : [ "obj-14", 2 ]
				}

			}
, 			{
				"patchline" : 				{
					"destination" : [ "obj-27", 0 ],
					"source" : [ "obj-14", 0 ]
				}

			}
, 			{
				"patchline" : 				{
					"destination" : [ "obj-1", 0 ],
					"source" : [ "obj-15", 0 ]
				}

			}
, 			{
				"patchline" : 				{
					"destination" : [ "obj-14", 0 ],
					"source" : [ "obj-18", 0 ]
				}

			}
, 			{
				"patchline" : 				{
					"destination" : [ "obj-15", 0 ],
					"source" : [ "obj-19", 0 ]
				}

			}
, 			{
				"patchline" : 				{
					"destination" : [ "obj-43", 0 ],
					"source" : [ "obj-2", 2 ]
				}

			}
, 			{
				"patchline" : 				{
					"destination" : [ "obj-1", 0 ],
					"source" : [ "obj-20", 0 ]
				}

			}
, 			{
				"patchline" : 				{
					"destination" : [ "obj-65", 0 ],
					"source" : [ "obj-22", 0 ]
				}

			}
, 			{
				"patchline" : 				{
					"destination" : [ "obj-65", 0 ],
					"source" : [ "obj-24", 0 ]
				}

			}
, 			{
				"patchline" : 				{
					"destination" : [ "obj-22", 0 ],
					"source" : [ "obj-25", 0 ]
				}

			}
, 			{
				"patchline" : 				{
					"destination" : [ "obj-3", 0 ],
					"source" : [ "obj-27", 0 ]
				}

			}
, 			{
				"patchline" : 				{
					"destination" : [ "obj-25", 1 ],
					"order" : 1,
					"source" : [ "obj-28", 0 ]
				}

			}
, 			{
				"patchline" : 				{
					"destination" : [ "obj-29", 0 ],
					"order" : 0,
					"source" : [ "obj-28", 0 ]
				}

			}
, 			{
				"patchline" : 				{
					"destination" : [ "obj-24", 1 ],
					"source" : [ "obj-29", 0 ]
				}

			}
, 			{
				"patchline" : 				{
					"destination" : [ "obj-37", 0 ],
					"source" : [ "obj-3", 0 ]
				}

			}
, 			{
				"patchline" : 				{
					"destination" : [ "obj-44", 0 ],
					"source" : [ "obj-39", 0 ]
				}

			}
, 			{
				"patchline" : 				{
					"destination" : [ "obj-45", 0 ],
					"source" : [ "obj-40", 1 ]
				}

			}
, 			{
				"patchline" : 				{
					"destination" : [ "obj-46", 0 ],
					"source" : [ "obj-43", 0 ]
				}

			}
, 			{
				"patchline" : 				{
					"destination" : [ "obj-40", 0 ],
					"source" : [ "obj-44", 0 ]
				}

			}
, 			{
				"patchline" : 				{
					"destination" : [ "obj-38", 0 ],
					"source" : [ "obj-45", 6 ]
				}

			}
, 			{
				"patchline" : 				{
					"destination" : [ "obj-24", 0 ],
					"order" : 1,
					"source" : [ "obj-47", 0 ]
				}

			}
, 			{
				"patchline" : 				{
					"destination" : [ "obj-25", 0 ],
					"order" : 0,
					"source" : [ "obj-47", 0 ]
				}

			}
, 			{
				"patchline" : 				{
					"destination" : [ "obj-39", 0 ],
					"source" : [ "obj-49", 0 ]
				}

			}
, 			{
				"patchline" : 				{
					"destination" : [ "obj-14", 1 ],
					"source" : [ "obj-5", 0 ]
				}

			}
, 			{
				"patchline" : 				{
					"destination" : [ "obj-5", 0 ],
					"source" : [ "obj-6", 0 ]
				}

			}
, 			{
				"patchline" : 				{
					"destination" : [ "obj-15", 0 ],
					"source" : [ "obj-68", 0 ]
				}

			}
, 			{
				"patchline" : 				{
					"destination" : [ "obj-10", 0 ],
					"source" : [ "obj-7", 0 ]
				}

			}
, 			{
				"patchline" : 				{
					"destination" : [ "obj-1", 0 ],
					"source" : [ "obj-71", 0 ]
				}

			}
 ],
		"originid" : "pat-351",
		"parameters" : 		{
			"obj-14::obj-87" : [ "mc.live.gain~[1]", "granular stretcher", 0 ],
			"obj-20" : [ "mc.live.gain~[2]", "granular", 0 ],
			"obj-47" : [ "mc.live.gain~", "mc.live.gain~", 0 ],
			"obj-71::obj-10" : [ "live.tab", "live.tab", 0 ],
			"obj-71::obj-14" : [ "live.toggle[7]", "live.toggle", 0 ],
			"obj-71::obj-26" : [ "live.menu[1]", "live.menu", 0 ],
			"obj-71::obj-28" : [ "live.dial[2]", " ", 0 ],
			"obj-71::obj-32" : [ "live.dial[3]", " ", 0 ],
			"obj-71::obj-41" : [ "live.dial[10]", "scaling", 0 ],
			"obj-71::obj-71" : [ "live.dial[43]", "scaling", 0 ],
			"obj-71::obj-81" : [ "live.text[16]", "live.text[16]", 0 ],
			"parameterbanks" : 			{
				"0" : 				{
					"index" : 0,
					"name" : "",
					"parameters" : [ "-", "-", "-", "-", "-", "-", "-", "-" ]
				}

			}
,
			"inherited_shortname" : 1
		}
,
		"dependency_cache" : [ 			{
				"name" : "relativetoabsolute.maxpat",
				"bootpath" : "~/git/wfs-patches",
				"patcherrelativepath" : ".",
				"type" : "JSON",
				"implicit" : 1
			}
, 			{
				"name" : "spat5.osc.prepend.mxo",
				"type" : "iLaX"
			}
, 			{
				"name" : "spat5.viewer.mxo",
				"type" : "iLaX"
			}
, 			{
				"name" : "spat5.wfs~.mxo",
				"type" : "iLaX"
			}
, 			{
				"name" : "wfs.64speakerConfig.maxpat",
				"bootpath" : "~/git/wfs-patches",
				"patcherrelativepath" : ".",
				"type" : "JSON",
				"implicit" : 1
			}
, 			{
				"name" : "wfs.granularStretch.maxpat",
				"bootpath" : "~/git/wfs-patches",
				"patcherrelativepath" : ".",
				"type" : "JSON",
				"implicit" : 1
			}
, 			{
				"name" : "wfs.polyFreeze.maxpat",
				"bootpath" : "~/git/wfs-patches",
				"patcherrelativepath" : ".",
				"type" : "JSON",
				"implicit" : 1
			}
 ],
		"autosave" : 0
	}

}
