#N canvas 319 403 664 588 16;
#X obj 76 589 osc~;
#X obj 189 774 *~;
#X obj 171 613 else/asr~ 10 10;
#X obj 64 12 inlet;
#X obj 165 864 outlet~;
#X obj 172 586 else/timed.gate 10;
#X obj 60 436 t b f;
#X obj 348 694 noise~;
#X obj 416 665 else/asr~ 10 10;
#X obj 417 638 else/timed.gate 10;
#X obj 413 804 *~;
#X obj 348 723 *~ 0.7;
#X obj 483 480 * 0.2;
#X text 122 10 frequency \, asr length \, del time;
#X obj 64 75 route list del_time;
#X obj 118 132 t b f;
#X obj 118 208 *;
#X obj 118 172 f \$1;
#X obj 64 260 pipe f f 100;
#X floatatom 185 222 5 0 0 0 - - - 12;
#X obj 270 145 print;
#X connect 0 0 1 0;
#X connect 1 0 4 0;
#X connect 2 0 1 1;
#X connect 3 0 14 0;
#X connect 5 0 2 0;
#X connect 6 0 5 0;
#X connect 6 0 9 0;
#X connect 6 1 0 0;
#X connect 7 0 11 0;
#X connect 8 0 10 1;
#X connect 9 0 8 0;
#X connect 10 0 4 0;
#X connect 11 0 10 0;
#X connect 12 0 9 1;
#X connect 12 0 8 1;
#X connect 12 0 8 2;
#X connect 14 0 18 0;
#X connect 14 0 20 0;
#X connect 14 1 15 0;
#X connect 15 0 17 0;
#X connect 15 1 16 1;
#X connect 16 0 18 2;
#X connect 16 0 19 0;
#X connect 17 0 16 0;
#X connect 18 0 6 0;
#X connect 18 1 12 0;
#X connect 18 1 2 1;
#X connect 18 1 2 2;
#X connect 18 1 5 1;
