#N canvas 827 239 527 327 12;
#X obj 208 487 play.file~;
#X msg 208 455 open ./\$1.wav;
#X obj 208 163 inlet;
#X obj 208 513 outlet~;
#X obj 208 253 + 1;
#X obj 208 279 clip 1 10;
#X obj 208 311 t f f;
#X obj 241 343 * 250;
#X obj 208 374 pipe;
#X obj 208 189 route float del_time;
#X connect 0 0 3 0;
#X connect 1 0 0 0;
#X connect 2 0 9 0;
#X connect 4 0 5 0;
#X connect 5 0 6 0;
#X connect 6 0 8 0;
#X connect 6 1 7 0;
#X connect 7 0 8 1;
#X connect 8 0 1 0;
#X connect 9 0 4 0;
#X connect 9 1 7 1;
