#N canvas 827 239 527 327 12;
#X obj 176 417 phasor~;
#X obj 176 546 *~;
#X obj 307 480 array size sample;
#X obj 307 509 expr $f1 / $f2;
#X obj 307 449 t b f;
#X obj 176 782 tabread~ sample;
#X obj 176 741 +~;
#X obj 199 683 expr $f1 * ($f2 * (1/$f3));
#X obj 176 321 expr play_rate * $f1;
#X obj 176 380 vline~;
#X obj 176 347 pack f 10;
#X obj 539 803 else/asr~ 10 10;
#X obj 496 499 t f b;
#X obj 759 579 samps2ms;
#X obj 759 720 * 0.5;
#X obj 759 681 f;
#X obj 786 637 t b f;
#X obj 539 711 changed~ 0.1;
#X obj 539 751 else/timed.gate~ 10;
#X obj 176 831 *~;
#X obj 176 906 outlet~;
#X obj 392 26 inlet;
#X obj 392 83 route list del_time;
#X obj 529 128 t b f;
#X obj 529 168 f \$1;
#X obj 529 204 * 100;
#X text 452 25 osc_msg (3 floats) n_cuts \, gate length | del_time;
#X text 452 54 bird_idx \, xpos \, ypos;
#X obj 392 261 pipe f f f f f 100;
#X msg 261 392 0;
#X obj 673 622 t b b;
#X obj 673 658 timer;
#X obj 673 695 * 0.5;
#X connect 0 0 1 0;
#X connect 0 0 17 0;
#X connect 1 0 6 0;
#X connect 2 0 3 0;
#X connect 2 0 7 1;
#X connect 3 0 1 1;
#X connect 3 0 13 0;
#X connect 4 0 2 0;
#X connect 4 1 3 1;
#X connect 4 1 7 2;
#X connect 5 0 19 0;
#X connect 6 0 5 0;
#X connect 7 0 6 1;
#X connect 8 0 10 0;
#X connect 9 0 0 0;
#X connect 10 0 9 0;
#X connect 11 0 19 1;
#X connect 12 0 7 0;
#X connect 12 1 29 0;
#X connect 12 1 30 0;
#X connect 13 0 15 0;
#X connect 14 0 11 1;
#X connect 14 0 11 2;
#X connect 15 0 14 0;
#X connect 16 0 15 0;
#X connect 16 1 14 1;
#X connect 17 0 18 0;
#X connect 18 0 11 0;
#X connect 19 0 20 0;
#X connect 21 0 22 0;
#X connect 22 0 28 0;
#X connect 22 1 23 0;
#X connect 23 0 24 0;
#X connect 23 1 25 1;
#X connect 24 0 25 0;
#X connect 25 0 28 5;
#X connect 28 0 12 0;
#X connect 28 3 8 0;
#X connect 28 3 4 0;
#X connect 28 4 16 0;
#X connect 29 0 0 1;
#X connect 30 0 31 0;
#X connect 30 1 31 1;
#X connect 31 0 32 0;
#X connect 32 0 18 1;
