#N canvas 776 0 895 1028 16;
#X obj 10 323 oscparse;
#X obj 10 363 list trim;
#X obj 10 392 route src;
#X floatatom 510 397 8 0 0 0 - - - 0;
#X floatatom 682 825 8 0 0 0 - - - 0;
#X floatatom 758 818 8 0 0 0 - - - 0;
#X floatatom 10 236 5 0 0 0 - - - 12;
#X msg 10 261 listen \$1;
#X obj 578 1148 else/pan2~;
#X obj 682 893 expr $f1*2-1;
#X obj 763 1541 else/out~;
#X floatatom 562 664 5 0 0 1 sustain - - 16;
#X obj 494 725 pack f f f;
#X obj 494 466 t f b;
#X obj 527 574 mtof;
#X obj 494 437 % 10, f 5;
#X obj 527 519 else/rand.list 60 64 67 71 74;
#X obj 809 878 else/rescale -in 0 1 0.25 1;
#X obj 578 1270 *~;
#X obj 659 1270 *~;
#X obj 726 364 else/display;
#X obj 726 463 else/display;
#X obj 726 437 else/combine 20;
#X obj 726 393 unpack f f;
#X obj 726 330 else/note.in -rel;
#X text 834 390 idk if the time is important \, but with no time \, we don't combine the message., f 26;
#X floatatom 579 437 5 0 0 1 n_notes - - 12;
#X obj 494 781 clone 50 beeper;
#X floatatom 697 713 5 0 0 0 - - - 12;
#X msg 697 738 all del_time \$1;
#X msg 596 744 vis 3 1;
#X obj 10 17 loadbang;
#X obj 251 102 soundfiler;
#X obj 256 9 array define sample;
#X obj 251 128 expr 44100 / $f1;
#X obj 10 424 s processing;
#X obj 494 262 r processing;
#X text 113 390 /src \, packet_idx \, bird_idx \, xpos \, ypos;
#X obj 494 309 unpack f f f f;
#X obj 10 294 netreceive -u -b 9000;
#X obj 441 920 *~;
#X obj 467 839 loadbang;
#X msg 467 865 40;
#X floatatom 467 891 5 0 0 0 - - - 12;
#X msg 251 76 read -resize ./point.wav sample;
#X obj 256 39 array define sample2;
#X obj 10 102 soundfiler;
#X obj 10 128 expr 44100 / $f1;
#X msg 10 76 read -resize ./field.wav sample2;
#X obj 10 164 v play_rate2;
#X obj 169 499 r processing;
#X obj 169 573 spigot;
#X obj 126 533 tgl 25 0 empty empty empty 17 7 0 10 #3c3836 #fbf1c7 #fbf1dc 0 1;
#X floatatom 264 540 5 0 0 1 n_cuts - - 12;
#X floatatom 325 582 5 0 0 1 gate_length - - 12;
#X floatatom 201 702 5 0 0 1 delay_time - - 12;
#X msg 201 732 all del_time \$1;
#X obj 169 645 else/merge 2 1;
#X obj 264 614 pack2 f f;
#X obj 166 895 *~;
#X obj 190 839 pack f 15;
#X obj 190 865 vline~;
#X obj 169 773 clone 20 field_sampler2;
#X obj 494 354 spigot;
#X obj 453 309 tgl 25 0 empty empty empty 17 7 0 10 #3c3836 #fbf1c7 #fbf1dc 0 1;
#X obj 562 607 loadbang;
#X msg 562 633 50;
#X text 113 421 /src \, voice_count \, index \, xpos \, ypos;
#X obj 251 154 s play_rate;
#X obj 897 1018 r play_rate;
#X obj 874 1056 f;
#X obj 874 1092 phasor~ 0;
#X obj 874 952 bng 25 250 50 0 empty empty empty 17 7 0 10 #3c3836 #fbf1c7 #fbf1dc;
#X obj 874 984 t b b;
#N canvas 0 50 450 300 circle 0;
#X obj 285 306 inlet~;
#X obj 285 389 cos~;
#X obj 349 389 else/sin~;
#X obj 285 550 outlet~;
#X obj 349 550 outlet~;
#X obj 285 490 *~;
#X obj 349 490 *~;
#X connect 0 0 1 0;
#X connect 0 0 2 0;
#X connect 0 0 6 1;
#X connect 0 0 5 1;
#X connect 1 0 5 0;
#X connect 2 0 6 0;
#X connect 5 0 3 0;
#X connect 6 0 4 0;
#X restore 1009 1344 pd circle;
#X obj 879 1408 else/pan2~;
#X obj 879 1475 *~;
#X obj 947 1475 *~;
#X msg 934 1056 0;
#X obj 1071 1408 else/rescale~ -in 0 1 0.25 1;
#X obj 874 1185 *~;
#X obj 1023 1125 array size sample;
#X obj 879 1344 tabread~ sample;
#X obj 1037 1178 else/sig2float~;
#X floatatom 399 171 15 0 0 0 - - - 12;
#X msg 1037 1266 0;
#X obj 1037 1237 sel 1;
#X obj 1037 1211 >= 4.6231e+06, f 11;
#X obj 325 968 else/mix2~;
#X obj 1088 -167 hsl 406 57 0 1 0 0 empty empty empty -2 -8 0 10 #e4e4e4 #4d4d4d #373737 0 1;
#X msg 1085 -93 /1/rows \$1;
#X obj 168 287 tgl 25 0 empty empty empty 17 7 0 10 #e4e4e4 #4d4d4d #373737 0 1;
#X obj 168 261 osc.send 5432;
#X obj 1085 -67 s processing_rcv;
#X obj 168 226 r processing_rcv;
#X obj 1088 -40 hsl 406 57 0 1 0 0 empty empty empty -2 -8 0 10 #e4e4e4 #4d4d4d #373737 0 1;
#X obj 1085 60 s processing_rcv;
#X msg 1085 34 /1/cols \$1;
#X obj 1088 92 hsl 406 57 0 1 0 0 empty empty empty -2 -8 0 10 #e4e4e4 #4d4d4d #373737 0 1;
#X obj 1085 192 s processing_rcv;
#X obj 1088 219 hsl 406 57 0 1 0 0 empty empty empty -2 -8 0 10 #e4e4e4 #4d4d4d #373737 0 1;
#X obj 1085 319 s processing_rcv;
#X msg 1085 166 /1/gutx \$1;
#X msg 1085 293 /1/guty \$1;
#X obj 1534 92 hsl 406 57 0 1 0 0 empty empty empty -2 -8 0 10 #e4e4e4 #4d4d4d #373737 0 1;
#X obj 1531 192 s processing_rcv;
#X obj 1534 219 hsl 406 57 0 1 0 0 empty empty empty -2 -8 0 10 #e4e4e4 #4d4d4d #373737 0 1;
#X obj 1531 319 s processing_rcv;
#X msg 1531 166 /1/rate \$1;
#X msg 1531 293 /1/size \$1;
#X obj 2002 92 hsl 406 57 0 1 0 0 empty empty empty -2 -8 0 10 #e4e4e4 #4d4d4d #373737 0 1;
#X obj 1999 192 s processing_rcv;
#X obj 2002 219 hsl 406 57 0 1 0 0 empty empty empty -2 -8 0 10 #e4e4e4 #4d4d4d #373737 0 1;
#X obj 1999 319 s processing_rcv;
#X msg 1999 166 /1/length \$1;
#X msg 1999 293 /1/speed \$1;
#X obj 2475 92 hsl 406 57 0 1 0 0 empty empty empty -2 -8 0 10 #e4e4e4 #4d4d4d #373737 0 1;
#X obj 2472 192 s processing_rcv;
#X obj 2482 226 hsl 406 57 0 1 0 0 empty empty empty -2 -8 0 10 #e4e4e4 #4d4d4d #373737 0 1;
#X obj 2479 326 s processing_rcv;
#X obj 2482 360 hsl 406 57 0 1 0 0 empty empty empty -2 -8 0 10 #e4e4e4 #4d4d4d #373737 0 1;
#X obj 2479 460 s processing_rcv;
#X msg 2472 166 /1/sep \$1;
#X msg 2479 300 /1/coh \$1;
#X msg 2479 434 /1/ali \$1;
#X obj 514 933 poly;
#X obj 848 505 list prepend /notes;
#X obj 848 531 list trim;
#X obj 817 633 osc.send;
#X obj 817 659 tgl 25 0 empty empty empty 17 7 0 10 #e4e4e4 #4d4d4d #373737 0 1;
#X msg 863 589 connect 127.0.0.1 6543;
#X connect 0 0 1 0;
#X connect 1 0 2 0;
#X connect 2 0 35 0;
#X connect 4 0 9 0;
#X connect 5 0 17 0;
#X connect 6 0 7 0;
#X connect 7 0 39 0;
#X connect 8 0 18 0;
#X connect 8 1 19 0;
#X connect 9 0 8 1 32.................kC...z8+++e4....c++++yN....;
#X connect 11 0 12 2;
#X connect 12 0 27 0;
#X connect 13 0 12 0;
#X connect 13 1 16 0;
#X connect 14 0 12 1;
#X connect 15 0 13 0;
#X connect 16 0 14 0;
#X connect 17 0 19 1 32.................kE...H3+++eYA...B9+++WW....;
#X connect 17 0 18 1 32.................VE...Dy+++uUA...w7+++WW....;
#X connect 18 0 10 0;
#X connect 19 0 10 1;
#X connect 20 0 23 0;
#X connect 21 0 16 1;
#X connect 22 0 21 0;
#X connect 22 0 126 0;
#X connect 23 0 22 0;
#X connect 24 0 20 0;
#X connect 26 0 15 1;
#X connect 27 0 40 0;
#X connect 28 0 29 0;
#X connect 29 0 27 0;
#X connect 30 0 27 0;
#X connect 31 0 44 0;
#X connect 31 0 48 0;
#X connect 32 0 34 0;
#X connect 32 0 84 0;
#X connect 34 0 68 0;
#X connect 36 0 38 0;
#X connect 38 0 63 0;
#X connect 38 2 4 0;
#X connect 38 3 5 0;
#X connect 39 0 0 0;
#X connect 40 0 88 1;
#X connect 41 0 42 0;
#X connect 42 0 43 0;
#X connect 43 0 40 1;
#X connect 44 0 32 0;
#X connect 46 0 47 0;
#X connect 47 0 49 0;
#X connect 48 0 46 0;
#X connect 50 0 51 0;
#X connect 51 0 57 0;
#X connect 52 0 51 1;
#X connect 52 0 60 0 32.................ID....D...PBA....A...jQ....;
#X connect 53 0 58 0;
#X connect 54 0 58 1;
#X connect 55 0 56 0;
#X connect 56 0 62 0;
#X connect 57 0 62 0;
#X connect 58 0 57 1;
#X connect 59 0 88 0;
#X connect 60 0 61 0;
#X connect 61 0 59 1;
#X connect 62 0 59 0;
#X connect 63 0 15 0;
#X connect 63 0 3 0;
#X connect 64 0 63 1;
#X connect 65 0 66 0;
#X connect 66 0 11 0;
#X connect 69 0 70 1;
#X connect 70 0 71 0;
#X connect 71 0 74 0;
#X connect 71 0 80 0;
#X connect 72 0 73 0;
#X connect 73 0 70 0;
#X connect 73 1 78 0;
#X connect 73 1 81 0 48......................DF.........gA.........c.........PG...fd....;
#X connect 74 0 75 1;
#X connect 74 1 79 0;
#X connect 75 0 76 0;
#X connect 75 1 77 0;
#X connect 76 0 10 0;
#X connect 77 0 10 1;
#X connect 78 0 71 1;
#X connect 79 0 76 1;
#X connect 79 0 77 1;
#X connect 80 0 82 0;
#X connect 80 0 83 0;
#X connect 81 0 80 1;
#X connect 82 0 75 0;
#X connect 83 0 87 0;
#X connect 85 0 71 0;
#X connect 85 0 71 1;
#X connect 86 0 85 0;
#X connect 87 0 86 0;
#X connect 88 0 8 0;
#X connect 89 0 90 0;
#X connect 90 0 93 0;
#X connect 92 0 91 0;
#X connect 94 0 92 0;
#X connect 95 0 97 0;
#X connect 97 0 96 0;
#X connect 98 0 102 0;
#X connect 100 0 103 0;
#X connect 102 0 99 0;
#X connect 103 0 101 0;
#X connect 104 0 108 0;
#X connect 106 0 109 0;
#X connect 108 0 105 0;
#X connect 109 0 107 0;
#X connect 110 0 114 0;
#X connect 112 0 115 0;
#X connect 114 0 111 0;
#X connect 115 0 113 0;
#X connect 116 0 122 0;
#X connect 118 0 123 0;
#X connect 120 0 124 0;
#X connect 122 0 117 0;
#X connect 123 0 119 0;
#X connect 124 0 121 0;
#X connect 126 0 127 0;
#X connect 127 0 128 0;
#X connect 128 0 129 0;
#X connect 130 0 128 0;
