#N canvas 776 0 895 1028 16;
#X floatatom 80 102 5 0 0 0 - - - 12;
#X obj 80 127 t f b;
#X msg 113 202 disconnect;
#X msg 80 168 connect localhost \$1;
#X obj 123 236 r osc_msg;
#X obj 368 60 hsl 300 30 0 1 0 0 empty empty empty -2 -8 0 10 #3c3836 #fbf1c7 #fbf1dc 0 1;
#X obj 249 184 s osc_msg;
#X msg 249 158 /1/rows \$1;
#X obj 80 274 else/osc.send;
#X obj 80 300 tgl 25 0 empty empty empty 17 7 0 10 #3c3836 #fbf1c7 #fbf1dc 0 1;
#X obj 368 105 hsl 300 30 0 1 0 0 empty empty empty -2 -8 0 10 #3c3836 #fbf1c7 #fbf1dc 0 1;
#X obj 266 236 s osc_msg;
#X obj 368 147 hsl 300 30 0 1 0 0 empty empty empty -2 -8 0 10 #3c3836 #fbf1c7 #fbf1dc 0 1;
#X obj 365 282 s osc_msg;
#X msg 266 210 /1/cols \$1;
#X obj 355 353 hsl 300 30 0 1 0 0 empty empty empty -2 -8 0 10 #3c3836 #fbf1c7 #fbf1dc 0 1;
#X obj 355 395 hsl 300 30 0 1 0 0 empty empty empty -2 -8 0 10 #3c3836 #fbf1c7 #fbf1dc 0 1;
#X obj 352 530 s osc_msg;
#X obj 248 530 s osc_msg;
#X msg 248 504 /1/rate \$1;
#X msg 352 504 /1/size \$1;
#X obj 686 147 hsl 300 30 0 1 0 0 empty empty empty -2 -8 0 10 #3c3836 #fbf1c7 #fbf1dc 0 1;
#X obj 683 282 s osc_msg;
#X msg 683 256 /1/guty \$1;
#X msg 365 256 /1/gutx \$1;
#X obj 707 375 hsl 300 30 0 1 0 0 empty empty empty -2 -8 0 10 #3c3836 #fbf1c7 #fbf1dc 0 1;
#X obj 704 510 s osc_msg;
#X msg 704 484 /1/nvis \$1;
#X connect 0 0 1 0;
#X connect 1 0 3 0;
#X connect 1 1 2 0;
#X connect 2 0 8 0;
#X connect 3 0 8 0;
#X connect 4 0 8 0;
#X connect 5 0 7 0;
#X connect 7 0 6 0;
#X connect 8 0 9 0;
#X connect 10 0 14 0;
#X connect 12 0 24 0;
#X connect 14 0 11 0;
#X connect 15 0 19 0;
#X connect 16 0 20 0;
#X connect 19 0 18 0;
#X connect 20 0 17 0;
#X connect 21 0 23 0;
#X connect 23 0 22 0;
#X connect 24 0 13 0;
#X connect 25 0 27 0;
#X connect 27 0 26 0;
