#N canvas 827 239 527 327 12;
#X floatatom 239 74 5 0 0 0 - - - 12;
#X msg 239 99 listen \$1;
#X obj 239 125 netreceive -u -b 10000;
#X obj 239 151 else/osc.parse;
#X obj 239 203 unpack f f f;
#X floatatom 239 229 5 0 0 0 - - - 12;
#X floatatom 298 259 5 0 0 0 - - - 12;
#X floatatom 372 253 5 0 0 0 - - - 12;
#X obj 239 177 else/osc.route /src;
#X obj 235 424 else/pan2~;
#X obj 235 488 else/out~;
#X obj 325 321 hsl 128 17 -1 1 0 0 empty empty empty -2 -8 0 10 #3c3836 #fbf1c7 #fbf1dc 0 1;
#X obj 81 200 tgl 20 0 empty empty empty 17 7 0 10 #dcdcdc #000000 #000000 0 1;
#X obj 41 406 *~;
#X obj 81 229 else/tempo~ 60;
#X text 152 325 <-- gate value;
#X obj 81 325 else/numbox~ 6 12 100 #c0c0c4 #440008 10 0 0 0;
#X text 94 262 <-- impulse;
#X obj 81 365 else/asr~ 10 10;
#X obj 81 296 else/timed.gate~ 10;
#X floatatom 245 351 5 0 0 0 - - - 12;
#X obj -31 332 noise~;
#X obj 298 284 expr $f1 * 2 - 1;
#X connect 0 0 1 0;
#X connect 1 0 2 0;
#X connect 2 0 3 0;
#X connect 3 0 8 0;
#X connect 4 0 5 0;
#X connect 4 1 6 0;
#X connect 4 2 7 0;
#X connect 6 0 22 0;
#X connect 8 0 4 0;
#X connect 9 0 10 0;
#X connect 9 1 10 1;
#X connect 11 0 9 1;
#X connect 12 0 14 0;
#X connect 13 0 9 0;
#X connect 14 0 19 0;
#X connect 16 0 18 0;
#X connect 18 0 13 1;
#X connect 19 0 16 0;
#X connect 20 0 19 1;
#X connect 20 0 18 1;
#X connect 20 0 18 2;
#X connect 21 0 13 0;
#X connect 22 0 11 0;
